PathFileType	4	(X/Y/Z)	/Users/niels/Desktop/University/Third Semester/Perception and Action/Exam/Gymnastics Motion Tracking/Code for Gym Tracking/Analyzed Data/Webcam_Backflip/id2_4_baseline_Sports2D/id2_4_baseline_Sports2D_px_person00.trc
DataRate	CameraRate	NumFrames	NumMarkers	Units	OrigDataRate	OrigDataStartFrame	OrigNumFrames
29.87551867219917	29.87551867219917	8	22	m	29.87551867219917	210	241
Frame#	Time	Hip			RHip			RKnee			RAnkle			RBigToe			RSmallToe			RHeel			LHip			LKnee			LAnkle			LBigToe			LSmallToe			LHeel			Neck			Head			Nose			RShoulder			RElbow			RWrist			LShoulder			LElbow			LWrist		
		X1	Y1	Z1	X2	Y2	Z2	X3	Y3	Z3	X4	Y4	Z4	X5	Y5	Z5	X6	Y6	Z6	X7	Y7	Z7	X8	Y8	Z8	X9	Y9	Z9	X10	Y10	Z10	X11	Y11	Z11	X12	Y12	Z12	X13	Y13	Z13	X14	Y14	Z14	X15	Y15	Z15	X16	Y16	Z16	X17	Y17	Z17	X18	Y18	Z18	X19	Y19	Z19	X20	Y20	Z20	X21	Y21	Z21	X22	Y22	Z22
210	7.029166666666667	0.736872723160396	-0.5548686679320028	0.0	0.7300651440161426	-0.5535263098265097	0.0	0.7283503301509192	-0.664411020067543	0.0	0.6994327052099956	-0.7857238962964826	0.0	0.7392676724978575	-0.8047215792119735	0.0	0.7222419055252165	-0.8083068624492413	0.0	0.6876945772976445	-0.8025915354023954	0.0	0.7460159810115586	-0.5532404301185201	0.0	0.7425052162590423	-0.6636424633335686	0.0	0.7192279800482896	-0.7743945286356377	0.0	0.7562731000559801	-0.795172168956612	0.0	0.7537321376841153	-0.7917017350276263	0.0	0.7161724615944555	-0.7910931765070669	0.0	0.7277307225331966	-0.39121050392290374	0.0	0.7462457725810691	-0.32096997242163183	0.0	0.7652609590914278	-0.36145555685707603	0.0	0.7124020711235167	-0.4123425925724659	0.0	0.7048672499753922	-0.49236041063753094	0.0	0.7394006562952835	-0.5631311767691968	0.0	0.7296800833924357	-0.41267998128627775	0.0	0.7257180481793521	-0.4872010001469667	0.0	0.7486607041374058	-0.552871246976742	0.0
211	7.062638888888889	0.735963906471175	-0.5554821542688432	0.0	0.7291631441307165	-0.5540164927212947	0.0	0.7272984650870641	-0.665460940080874	0.0	0.6990268182000999	-0.7869973020647952	0.0	0.7402669056439747	-0.8047711663692139	0.0	0.7230292984233971	-0.8085072953082014	0.0	0.6874579933899502	-0.8039703765496279	0.0	0.744585078490749	-0.5537691002481491	0.0	0.7410790866989231	-0.6646447655997854	0.0	0.7187264155932748	-0.7754831228143082	0.0	0.7566486250919812	-0.7959879221246546	0.0	0.7538377309829688	-0.7926066851252089	0.0	0.7157613000351123	-0.7923014347322537	0.0	0.727187679318926	-0.3918393159807127	0.0	0.7458393597162956	-0.3218161736952528	0.0	0.7651112223940512	-0.36221530884662523	0.0	0.7117618658189766	-0.41334890626277754	0.0	0.7043293250426256	-0.49341202090013636	0.0	0.7387225974564908	-0.5645382570967065	0.0	0.7289541674373556	-0.41351942171358474	0.0	0.7249519353503253	-0.4884148665513847	0.0	0.7477775806686059	-0.554822511928742	0.0
212	7.096111111111111	0.7348849319689199	-0.557355377434159	0.0	0.7280536196254489	-0.555756306552086	0.0	0.7261384159370956	-0.6674276860353217	0.0	0.6986239655308336	-0.7891448536802975	0.0	0.7410902168345002	-0.8059132844593802	0.0	0.7237829081896459	-0.8097608007629509	0.0	0.6872324049397993	-0.806118125775753	0.0	0.7431306598406765	-0.5555944381374205	0.0	0.7396438277112404	-0.666627286994191	0.0	0.7181872423247131	-0.7773682907417925	0.0	0.7567036172401997	-0.7975145221193131	0.0	0.7537524926397215	-0.7942306898330437	0.0	0.7152401220252558	-0.794187310712914	0.0	0.7267502523351229	-0.39343907148793955	0.0	0.7455720179191603	-0.3235729338528409	0.0	0.7649789061858678	-0.3637668955709381	0.0	0.7111614785494214	-0.41532941286539754	0.0	0.7041164266805594	-0.49554968539055505	0.0	0.7381535501187908	-0.567150567771887	0.0	0.7283285778877465	-0.4153663394066951	0.0	0.7243360470464372	-0.4906573059198489	0.0	0.7467335333796118	-0.5578485388282947	0.0
213	7.129583333333334	0.7336757441698687	-0.5602821654895247	0.0	0.7268290668720974	-0.5585382194785532	0.0	0.7249782128845018	-0.6701097654453808	0.0	0.6982651067295171	-0.7919542004588911	0.0	0.7416823624934775	-0.8080523224673654	0.0	0.7244560418522628	-0.81192645081347	0.0	0.6870378462361901	-0.8088758311212407	0.0	0.7417597702119166	-0.5584656076393724	0.0	0.7382965297052626	-0.6694260335110989	0.0	0.7176322572742164	-0.7799062770609384	0.0	0.75648074191393	-0.7996131097115774	0.0	0.7535235379712913	-0.7963928959610158	0.0	0.7146478717916767	-0.7965690885970422	0.0	0.726398022056468	-0.3959176845925313	0.0	0.7454114733425943	-0.3260576085052003	0.0	0.7648070391402053	-0.36602318329566946	0.0	0.7105713190354916	-0.418137287989122	0.0	0.7042035916355299	-0.4986244904540832	0.0	0.7376577206761918	-0.5707723214193922	0.0	0.7278104842548964	-0.4180648453896653	0.0	0.7239153322596492	-0.49374471737624803	0.0	0.7456343607906477	-0.5617021409895415	0.0
214	7.163055555555555	0.7323917276058695	-0.563942936695132	0.0	0.7256066777780081	-0.5620709590679692	0.0	0.723890696067893	-0.6732940451083465	0.0	0.6979659324044611	-0.795164881274539	0.0	0.7420524120784723	-0.8110028609571934	0.0	0.7250130597994907	-0.814819360984012	0.0	0.6868795399385779	-0.8120487575990776	0.0	0.7405123022820769	-0.5620611737560499	0.0	0.7370831468686995	-0.6727881126856446	0.0	0.7170921946503229	-0.7829239742590242	0.0	0.7560821046977628	-0.8021366296155455	0.0	0.7532152738197492	-0.7989022193519139	0.0	0.7140669192560686	-0.7992838019705476	0.0	0.7261085963442243	-0.39906836477609187	0.0	0.7453327341389986	-0.32905114169549093	0.0	0.7645841676855126	-0.36885068089482725	0.0	0.7100309266153084	-0.4215528775870281	0.0	0.7045067475912932	-0.5024289918522508	0.0	0.7372053112634808	-0.5751178766163627	0.0	0.7273788139708323	-0.4213775727608479	0.0	0.7236275146198458	-0.4974706021226247	0.0	0.7445647046401658	-0.5661795773776626	0.0
215	7.196527777777778	0.7310948275027933	-0.5679635501153492	0.0	0.7244634462181821	-0.5660040766116653	0.0	0.722901380697097	-0.6767509883682328	0.0	0.6977054647831906	-0.7984718409972983	0.0	0.7422103751460077	-0.8144308097645709	0.0	0.7254116605130835	-0.8181441204878473	0.0	0.6867321291257086	-0.8153724048698013	0.0	0.7394048287430347	-0.5660156619996402	0.0	0.7360419233677711	-0.6763941427638032	0.0	0.716585800893895	-0.7861829006662575	0.0	0.7556386415494407	-0.8049104435621374	0.0	0.75290104749041	-0.8015780511915428	0.0	0.7135745451158607	-0.8021952752478697	0.0	0.7258727916619958	-0.4026000175125228	0.0	0.7453161135273376	-0.3323067921745901	0.0	0.7643415169963677	-0.37202270835495244	0.0	0.7095935498314481	-0.4253144531584405	0.0	0.7048864906427416	-0.5066789888784293	0.0	0.7367603151813453	-0.5798415954265577	0.0	0.7270125037076972	-0.42503728265259827	0.0	0.7233797959571513	-0.5015866758048572	0.0	0.7435786628677513	-0.5710350071584814	0.0
216	7.23	0.7298596807572305	-0.571932962756047	0.0	0.7234157527983076	-0.5699075939857747	0.0	0.7220224131889188	-0.680206463122812	0.0	0.6974716593820327	-0.8015629703693926	0.0	0.7421740782992919	-0.8177817667039032	0.0	0.725637919169114	-0.8214147864005404	0.0	0.6865600238111794	-0.8185127830459595	0.0	0.7384510203922418	-0.5698894499077551	0.0	0.735215808279063	-0.6798967745945663	0.0	0.7161324236921373	-0.7893835782465011	0.0	0.7553643972374885	-0.807744211244945	0.0	0.752737273766484	-0.8042938496486735	0.0	0.7132397174975009	-0.8051827994948952	0.0	0.7256825667826985	-0.4061950239122788	0.0	0.7453332639016189	-0.3355596122128177	0.0	0.7641460692506649	-0.3752338142794194	0.0	0.7092448860106219	-0.4291311216202709	0.0	0.7051618714414034	-0.5109750439507929	0.0	0.7362568223187262	-0.5845407815707299	0.0	0.7267049207272113	-0.4287622243329941	0.0	0.7231195266534454	-0.5057568706780783	0.0	0.7427175497016435	-0.575904896425659	0.0
217	7.263472222222222	0.7287618146196112	-0.5754482406646817	0.0	0.7224491965885125	-0.5733591832660196	0.0	0.7212765105791524	-0.6833731141160603	0.0	0.6972839703977197	-0.8041754652170201	0.0	0.7419654658357515	-0.8205030588145298	0.0	0.7256860884586981	-0.8241424029949136	0.0	0.686367929592735	-0.821147885554928	0.0	0.7376573556278143	-0.5732530280898525	0.0	0.734617469938818	-0.6829923729552876	0.0	0.7157401705451024	-0.7922380391375488	0.0	0.7554241485350313	-0.8104121016906672	0.0	0.7528606367150859	-0.8069078909231663	0.0	0.713073794384475	-0.8080790777951062	0.0	0.7255001529732361	-0.4095423321319366	0.0	0.7453442196916376	-0.33854999475406305	0.0	0.7640437187201399	-0.3781716856615011	0.0	0.708900068828007	-0.4326940710756615	0.0	0.7051729680963403	-0.5148676247316982	0.0	0.7356264240271795	-0.5887848315853007	0.0	0.7264458845585094	-0.432236009542824	0.0	0.7228605050305447	-0.5095728646580868	0.0	0.7420147105794547	-0.5803182876772041	0.0
